<?xml version="1.0" standalone="no"?><!DOCTYPE svg PUBLIC "-//W3C//DTD SVG 1.1//EN" "http://www.w3.org/Graphics/SVG/1.1/DTD/svg11.dtd"><svg class="icon" width="200px" height="200.00px" viewBox="0 0 1024 1024" version="1.1" xmlns="http://www.w3.org/2000/svg"><path d="M155.34 756.714h719.034v146.542H155.34z" fill="#F5F7FA" /><path d="M384.1 874.404H213.546c-11.772 0-21.294-9.554-21.294-21.326 0-11.774 9.524-21.328 21.294-21.328H384.1c11.772 0 21.294 9.554 21.294 21.328 0 11.772-9.522 21.326-21.294 21.326z" fill="#CCD1D9" /><path d="M213.544 810.456h660.828c11.772 0 21.328-9.556 21.328-21.328v-767.4c0-11.772-9.556-21.326-21.328-21.326H213.544c-47.088 0-85.246 38.188-85.246 85.278v767.402c0 47.088 38.158 85.276 85.246 85.276h660.828c11.772 0 21.328-9.554 21.328-21.326s-9.556-21.326-21.328-21.326H213.544c-23.482 0-42.624-19.112-42.624-42.624 0.002-23.518 19.142-42.626 42.624-42.626z" fill="#434A54" /><path d="M213.544 810.456H256.2V0.4h-42.654C166.458 0.4 128.3 38.588 128.3 85.678V853.08c0 47.088 38.158 85.276 85.246 85.276H256.2v-42.652h-42.654c-23.482 0-42.624-19.112-42.624-42.624 0-23.516 19.14-42.624 42.622-42.624z" fill="#656D78" /><path d="M384.1 1023.6l-85.278-42.624-85.278 42.624V853.078H384.1z" fill="#ED5564" /><path d="M554.624 241.242l52.706 106.762 117.816 17.142-85.246 83.092 20.11 117.378-105.386-55.426-105.388 55.426 20.11-117.378-85.246-83.092 117.814-17.142z" fill="#FFCE54" /><path d="M874.374 853.078c-11.774 0-21.328 9.554-21.328 21.326S862.6 895.7 874.374 895.7v-42.622z m0-42.622c-11.774 0-21.328 9.524-21.328 21.294s9.554 21.328 21.328 21.328v-42.622z" fill="#CCD1D9" /></svg>