<?xml version="1.0" standalone="no"?><!DOCTYPE svg PUBLIC "-//W3C//DTD SVG 1.1//EN" "http://www.w3.org/Graphics/SVG/1.1/DTD/svg11.dtd"><svg class="icon" width="200px" height="200.00px" viewBox="0 0 1024 1024" version="1.1" xmlns="http://www.w3.org/2000/svg"><path d="M453.585455 484.235636l-162.117819-127.325091a32.768 32.768 0 0 0-53.015272 25.832728v61.021091H125.975273A32.884364 32.884364 0 0 0 93.090909 476.625455v68.817454a32.768 32.768 0 0 0 32.884364 32.861091h112.477091v61.021091a32.768 32.768 0 0 0 53.015272 25.832727l162.117819-127.325091a34.164364 34.164364 0 0 0 0-53.597091z" fill="#68768C" /><path d="M869.562182 74.472727a27.927273 27.927273 0 0 0-2.722909-1.000727 91.438545 91.438545 0 0 0-18.222546-4.258909L535.738182 0.605091a25.6 25.6 0 0 0-22.784 6.283636 31.371636 31.371636 0 0 0-10.077091 23.272728v38.167272H392.843636a94.882909 94.882909 0 0 0-94.254545 95.301818v105.658182a42.658909 42.658909 0 1 0 85.317818 0v-105.658182a8.983273 8.983273 0 0 1 8.913455-9.029818h110.033454v712.797091h-110.033454a8.983273 8.983273 0 0 1-8.913455-8.983273v-105.704727a42.658909 42.658909 0 1 0-85.317818 0v105.704727a94.906182 94.906182 0 0 0 94.254545 95.301819h110.033455v40.122181a31.488 31.488 0 0 0 10.146909 23.389091 26.018909 26.018909 0 0 0 17.338182 6.749091 26.368 26.368 0 0 0 5.632-0.605091l305.524363-69.818181a94.859636 94.859636 0 0 0 89.413819-95.022546V163.746909A95.418182 95.418182 0 0 0 869.562182 74.472727z m-210.106182 426.146909c0 43.031273-21.457455 77.940364-47.941818 77.940364s-47.941818-34.909091-47.941818-77.940364 21.457455-77.917091 47.941818-77.917091 47.941818 34.885818 47.941818 77.917091z" fill="#68768C" /></svg>