<?xml version="1.0" standalone="no"?><!DOCTYPE svg PUBLIC "-//W3C//DTD SVG 1.1//EN" "http://www.w3.org/Graphics/SVG/1.1/DTD/svg11.dtd"><svg class="icon" width="200px" height="200.00px" viewBox="0 0 1024 1024" version="1.1" xmlns="http://www.w3.org/2000/svg"><path d="M551.0217 25.392797l124.49563 264.108586c6.359517 13.473553 18.593503 22.770305 32.767681 24.926073l278.4175 42.360851c35.677968 5.416368 49.932987 51.334237 24.11766 77.688507l-201.483512 205.579472a46.887965 46.887965 0 0 0-12.503458 40.31287l47.561643 290.274227c6.090046 37.213953-31.204749 65.589256-63.13707 48.019743l-248.99126-137.052982a41.768014 41.768014 0 0 0-40.5015 0l-249.018207 137.052982c-31.932321 17.569513-69.254063-10.778842-63.137069-48.019743L227.17138 680.369156a46.887965 46.887965 0 0 0-12.503457-40.31287l-201.483512-205.606419c-25.815328-26.327323-11.587256-72.218244 24.11766-77.66156l278.417499-42.360851c14.174178-2.155768 26.408164-11.479467 32.767681-24.926073l124.49563-264.081639a42.657269 42.657269 0 0 1 78.038819 0z" fill="#DDDDDD" /></svg>